# xmcd
#
# Track frame offsets:
#  150
#  23771
#  52496
#  81310
#  99116
#  118274
#  144880
#  168019
#  200340
#  228767
#
# Disc length: 3338 seconds
#
# Revision: 0
# Processed by: cddbd v1.5.1PL2 Copyright (c) Steve Scherf et al.
# Submitted via: Collectorz.com_Music_Collector 6.11
#
DISCID=790d080a
DTITLE=Bruce Springsteen and Friends - Christmas At Harry's [CD2)
DYEAR=2004
DGENRE=Rock
TTITLE0=Stand On It
TTITLE1=Darlington County
TTITLE2=Bobby Jean
TTITLE3=If I Should Fall Behind (Solo)
TTITLE4=10th Avenue Freeze-Out
TTITLE5=Santa Claus Is Coming To Town
TTITLE6=What's So Funny 'bout Peace, Love And Understanding
TTITLE7=End Of The Innocence
TTITLE8=E Street Shuffle
TTITLE9=Santa Claus Is Coming To Town
EXTD=
EXTT0=
EXTT1=
EXTT2=
EXTT3=
EXTT4=
EXTT5=
EXTT6=
EXTT7=
EXTT8=
EXTT9=
PLAYORDER=
